<svg width="596" height="596" viewBox="0 0 596 596" fill="none" xmlns="http://www.w3.org/2000/svg">
<path d="M596 298C596 462.581 462.581 596 298 596C133.419 596 0 462.581 0 298C0 133.419 133.419 0 298 0C462.581 0 596 133.419 596 298Z" fill="white"/>
<path d="M464.46 155.918C379.286 78.265 272.834 89.3013 204.536 167.923L144.613 236.905C109.41 277.429 112.316 340.362 151.105 377.468C189.893 414.575 249.875 411.805 285.078 371.28L468.666 159.941L464.46 155.918Z" fill="#07AEFB" fill-opacity="0.7" style="mix-blend-mode:plus-darker"/>
<path d="M128.83 440.192C202.335 513.968 318.802 511.388 388.967 434.427L450.529 366.903C486.694 327.236 485.299 264.252 447.412 226.225C409.525 188.198 349.494 189.528 313.329 229.196L124.722 436.069L128.83 440.192Z" fill="#A207FB" fill-opacity="0.7" style="mix-blend-mode:plus-darker"/>
</svg>
